<mxfile host="65bd71144e">
    <diagram id="BRb0pFB7m13HwBYcIA04" name="ページ1">
        <mxGraphModel dx="1261" dy="528" grid="1" gridSize="10" guides="1" tooltips="1" connect="1" arrows="1" fold="1" page="1" pageScale="1" pageWidth="827" pageHeight="1169" math="0" shadow="0">
            <root>
                <mxCell id="0"/>
                <mxCell id="1" parent="0"/>
                <mxCell id="44" value="Mbti" style="rounded=0;whiteSpace=wrap;html=1;" parent="1" vertex="1">
                    <mxGeometry x="620" y="170" width="160" height="40" as="geometry"/>
                </mxCell>
                <mxCell id="45" value="- mbtiId: int&lt;br&gt;- mbtiName: String&lt;br&gt;- mbtiType: String&lt;br&gt;- mbtiImage: String&lt;br&gt;- character: String&lt;br&gt;- job: String" style="rounded=0;whiteSpace=wrap;html=1;" parent="1" vertex="1">
                    <mxGeometry x="620" y="210" width="160" height="110" as="geometry"/>
                </mxCell>
                <mxCell id="48" value="AllServlet" style="rounded=0;whiteSpace=wrap;html=1;" parent="1" vertex="1">
                    <mxGeometry x="240" y="320" width="120" height="40" as="geometry"/>
                </mxCell>
                <mxCell id="58" value="all.jsp&lt;br&gt;MBTI一覧" style="rounded=0;whiteSpace=wrap;html=1;" parent="1" vertex="1">
                    <mxGeometry x="240" y="450" width="120" height="40" as="geometry"/>
                </mxCell>
                <mxCell id="60" value="Main" style="rounded=0;whiteSpace=wrap;html=1;" parent="1" vertex="1">
                    <mxGeometry x="80" y="80" width="120" height="40" as="geometry"/>
                </mxCell>
                <mxCell id="62" value="+ doGet()&lt;br&gt;+ doPost()" style="rounded=0;whiteSpace=wrap;html=1;" parent="1" vertex="1">
                    <mxGeometry x="80" y="120" width="120" height="80" as="geometry"/>
                </mxCell>
                <mxCell id="64" value="MbtiDAO" style="rounded=0;whiteSpace=wrap;html=1;" parent="1" vertex="1">
                    <mxGeometry x="880" y="80" width="120" height="40" as="geometry"/>
                </mxCell>
                <mxCell id="65" value="- JDBC_URL: String&lt;br&gt;- DB_USER: String&lt;br&gt;- DB_PASS: String" style="rounded=0;whiteSpace=wrap;html=1;" parent="1" vertex="1">
                    <mxGeometry x="880" y="120" width="120" height="80" as="geometry"/>
                </mxCell>
                <mxCell id="66" value="Select" style="rounded=0;whiteSpace=wrap;html=1;" parent="1" vertex="1">
                    <mxGeometry x="370" y="80" width="120" height="40" as="geometry"/>
                </mxCell>
                <mxCell id="67" value="- mbtiId: int" style="rounded=0;whiteSpace=wrap;html=1;" parent="1" vertex="1">
                    <mxGeometry x="370" y="120" width="120" height="40" as="geometry"/>
                </mxCell>
                <mxCell id="70" value="SelectLogic" style="rounded=0;whiteSpace=wrap;html=1;" vertex="1" parent="1">
                    <mxGeometry x="620" y="80" width="160" height="40" as="geometry"/>
                </mxCell>
                <mxCell id="71" value="MbtiServlet" style="rounded=0;whiteSpace=wrap;html=1;" vertex="1" parent="1">
                    <mxGeometry x="80" y="320" width="120" height="40" as="geometry"/>
                </mxCell>
                <mxCell id="79" value="+ findByLogin(select: Select): Mbti" style="rounded=0;whiteSpace=wrap;html=1;" vertex="1" parent="1">
                    <mxGeometry x="880" y="200" width="120" height="60" as="geometry"/>
                </mxCell>
                <mxCell id="81" value="+ Mbti(mbtiId: int,&lt;br&gt;mbtiName: String,&lt;br&gt;mbtiType: String,&lt;br&gt;mbtiImage: String,&lt;br&gt;character: String,&lt;br&gt;job: String)&lt;br&gt;+ getMbtiId(): int&lt;br&gt;+ getMbtiName(): String&lt;br&gt;+ getMbtiType(): String&lt;br&gt;+ getMbtiImage(): String&lt;br&gt;+ getCharacter(): String&lt;br&gt;+ getJob(): String" style="rounded=0;whiteSpace=wrap;html=1;" vertex="1" parent="1">
                    <mxGeometry x="620" y="320" width="160" height="210" as="geometry"/>
                </mxCell>
                <mxCell id="82" value="+ Select(mbtiId: int)&lt;br&gt;+getMbtiId(): int" style="rounded=0;whiteSpace=wrap;html=1;" vertex="1" parent="1">
                    <mxGeometry x="370" y="160" width="120" height="80" as="geometry"/>
                </mxCell>
                <mxCell id="83" value="+ execute(select: Select: Mbti" style="rounded=0;whiteSpace=wrap;html=1;" vertex="1" parent="1">
                    <mxGeometry x="620" y="120" width="160" height="40" as="geometry"/>
                </mxCell>
                <mxCell id="84" value="+ doGet()" style="rounded=0;whiteSpace=wrap;html=1;" vertex="1" parent="1">
                    <mxGeometry x="240" y="360" width="120" height="80" as="geometry"/>
                </mxCell>
                <mxCell id="85" value="+ doGet()&lt;br&gt;+ doPost()" style="rounded=0;whiteSpace=wrap;html=1;" vertex="1" parent="1">
                    <mxGeometry x="80" y="360" width="120" height="80" as="geometry"/>
                </mxCell>
                <mxCell id="127" value="" style="endArrow=diamondThin;endFill=0;endSize=24;html=1;" edge="1" parent="1">
                    <mxGeometry width="160" relative="1" as="geometry">
                        <mxPoint x="510" y="150" as="sourcePoint"/>
                        <mxPoint x="610" y="190" as="targetPoint"/>
                    </mxGeometry>
                </mxCell>
                <mxCell id="132" value="" style="endArrow=diamondThin;endFill=1;endSize=24;html=1;" edge="1" parent="1">
                    <mxGeometry width="160" relative="1" as="geometry">
                        <mxPoint x="610" y="100" as="sourcePoint"/>
                        <mxPoint x="510" y="100" as="targetPoint"/>
                    </mxGeometry>
                </mxCell>
                <mxCell id="133" value="top.jsp" style="text;strokeColor=none;align=center;fillColor=none;html=1;verticalAlign=middle;whiteSpace=wrap;rounded=0;" vertex="1" parent="1">
                    <mxGeometry x="80" y="50" width="60" height="30" as="geometry"/>
                </mxCell>
                <mxCell id="134" value="" style="endArrow=block;dashed=1;endFill=0;endSize=12;html=1;" edge="1" parent="1">
                    <mxGeometry width="160" relative="1" as="geometry">
                        <mxPoint x="138.82" y="210" as="sourcePoint"/>
                        <mxPoint x="138.82" y="310" as="targetPoint"/>
                    </mxGeometry>
                </mxCell>
                <mxCell id="135" value="" style="endArrow=block;dashed=1;endFill=0;endSize=12;html=1;" edge="1" parent="1">
                    <mxGeometry width="160" relative="1" as="geometry">
                        <mxPoint x="170" y="210" as="sourcePoint"/>
                        <mxPoint x="290" y="310" as="targetPoint"/>
                    </mxGeometry>
                </mxCell>
                <mxCell id="136" value="" style="endArrow=block;dashed=1;endFill=0;endSize=12;html=1;" edge="1" parent="1">
                    <mxGeometry width="160" relative="1" as="geometry">
                        <mxPoint x="210" y="99.41" as="sourcePoint"/>
                        <mxPoint x="350" y="99" as="targetPoint"/>
                    </mxGeometry>
                </mxCell>
                <mxCell id="137" value="" style="endArrow=block;dashed=1;endFill=0;endSize=12;html=1;" edge="1" parent="1">
                    <mxGeometry width="160" relative="1" as="geometry">
                        <mxPoint x="790" y="99.41" as="sourcePoint"/>
                        <mxPoint x="870" y="99" as="targetPoint"/>
                    </mxGeometry>
                </mxCell>
                <mxCell id="138" value="" style="endArrow=block;dashed=1;endFill=0;endSize=12;html=1;" edge="1" parent="1">
                    <mxGeometry width="160" relative="1" as="geometry">
                        <mxPoint x="870" y="118.82" as="sourcePoint"/>
                        <mxPoint x="790" y="190" as="targetPoint"/>
                    </mxGeometry>
                </mxCell>
                <mxCell id="140" value="group.jsp" style="text;strokeColor=none;align=center;fillColor=none;html=1;verticalAlign=middle;whiteSpace=wrap;rounded=0;" vertex="1" parent="1">
                    <mxGeometry x="370" y="50" width="60" height="30" as="geometry"/>
                </mxCell>
            </root>
        </mxGraphModel>
    </diagram>
</mxfile>